<svg width="14" height="18" viewBox="0 0 14 18" fill="none" xmlns="http://www.w3.org/2000/svg">
<path d="M8.18335 9.9C8.02841 9.74379 7.84407 9.6198 7.64098 9.53519C7.43788 9.45057 7.22003 9.40701 7.00001 9.40701C6.77999 9.40701 6.56215 9.45057 6.35905 9.53519C6.15595 9.6198 5.97162 9.74379 5.81668 9.9L0.816682 14.9C0.494002 15.2138 0.309211 15.643 0.302959 16.0931C0.296708 16.5432 0.46951 16.9773 0.78335 17.3C1.09719 17.6227 1.52636 17.8075 1.97645 17.8137C2.42653 17.82 2.86067 17.6472 3.18335 17.3333L7.00001 13.4333L10.8167 17.3333C10.9716 17.4896 11.156 17.6135 11.3591 17.6982C11.5622 17.7828 11.78 17.8263 12 17.8263C12.22 17.8263 12.4379 17.7828 12.641 17.6982C12.8441 17.6135 13.0284 17.4896 13.1833 17.3333C13.3396 17.1784 13.4636 16.9941 13.5482 16.791C13.6328 16.5879 13.6763 16.37 13.6763 16.15C13.6763 15.93 13.6328 15.7121 13.5482 15.509C13.4636 15.3059 13.3396 15.1216 13.1833 14.9667L8.18335 9.9ZM3.18335 8.1L7.00001 4.26667L10.8167 8.1C10.9716 8.25622 11.156 8.38021 11.3591 8.46482C11.5622 8.54944 11.78 8.593 12 8.593C12.22 8.593 12.4379 8.54944 12.641 8.46482C12.8441 8.38021 13.0284 8.25622 13.1833 8.1C13.3396 7.94507 13.4636 7.76073 13.5482 7.55763C13.6328 7.35453 13.6763 7.13669 13.6763 6.91667C13.6763 6.69665 13.6328 6.47881 13.5482 6.27571C13.4636 6.07261 13.3396 5.88828 13.1833 5.73334L8.18335 0.733338C8.02841 0.577124 7.84407 0.453134 7.64098 0.36852C7.43788 0.283905 7.22003 0.240341 7.00001 0.240341C6.77999 0.240341 6.56215 0.283905 6.35905 0.36852C6.15595 0.453134 5.97162 0.577124 5.81668 0.733338L0.816682 5.73334C0.502843 6.04718 0.326529 6.47284 0.326529 6.91667C0.326529 7.36051 0.502843 7.78616 0.816682 8.1C1.13052 8.41384 1.55618 8.59016 2.00002 8.59016C2.44385 8.59016 2.86951 8.41384 3.18335 8.1Z" fill="#2CE86C"/>
</svg>
