<svg width="14" height="18" viewBox="0 0 14 18" fill="none" xmlns="http://www.w3.org/2000/svg">
<path d="M5.81668 8.10004C5.97162 8.25626 6.15596 8.38025 6.35905 8.46486C6.56215 8.54948 6.78 8.59304 7.00002 8.59304C7.22004 8.59304 7.43788 8.54948 7.64098 8.46486C7.84408 8.38025 8.02841 8.25626 8.18335 8.10004L13.1833 3.10004C13.3431 2.94465 13.4707 2.7593 13.5589 2.55459C13.647 2.34988 13.694 2.12981 13.6971 1.90695C13.7002 1.68409 13.6593 1.4628 13.5769 1.25572C13.4945 1.04864 13.3721 0.859819 13.2167 0.700044C13.0613 0.540269 12.8759 0.412667 12.6712 0.324522C12.4665 0.236377 12.2464 0.189416 12.0236 0.186321C11.8007 0.183226 11.5794 0.224056 11.3724 0.306482C11.1653 0.388907 10.9765 0.511313 10.8167 0.666711L7.00002 4.56671L3.18335 0.666711C2.86067 0.352871 2.42653 0.18007 1.97645 0.186321C1.52636 0.192572 1.09719 0.377364 0.78335 0.700044C0.46951 1.02272 0.296708 1.45686 0.302959 1.90695C0.309211 2.35703 0.494002 2.7862 0.816682 3.10004L5.81668 8.10004ZM10.8167 9.90004L7.00002 13.7334L3.18335 9.90004C2.86067 9.5862 2.42653 9.4134 1.97645 9.41965C1.52636 9.42591 1.09719 9.6107 0.78335 9.93338C0.46951 10.2561 0.296708 10.6902 0.302959 11.1403C0.309211 11.5904 0.494002 12.0195 0.816682 12.3334L5.81668 17.3334C5.97162 17.4896 6.15596 17.6136 6.35905 17.6982C6.56215 17.7828 6.78 17.8264 7.00002 17.8264C7.22004 17.8264 7.43788 17.7828 7.64098 17.6982C7.84408 17.6136 8.02841 17.4896 8.18335 17.3334L13.1833 12.3334C13.4972 12.0195 13.6735 11.5939 13.6735 11.15C13.6735 10.7062 13.4972 10.2806 13.1833 9.96671C12.8695 9.65287 12.4439 9.47656 12 9.47656C11.5562 9.47656 11.1305 9.65287 10.8167 9.96671V9.90004Z" fill="#E22900"/>
</svg>
